<?xml version="1.0" encoding="UTF-8"?>
<!DOCTYPE svg PUBLIC "-//W3C//DTD SVG 1.1//EN" "http://www.w3.org/Graphics/SVG/1.1/DTD/svg11.dtd">
<!-- Creator: CorelDRAW X8 -->
<svg xmlns="http://www.w3.org/2000/svg" xml:space="preserve" width="63.4435mm" height="16.4762mm" version="1.1" style="shape-rendering:geometricPrecision; text-rendering:geometricPrecision; image-rendering:optimizeQuality; fill-rule:evenodd; clip-rule:evenodd"
viewBox="0 0 4774 1240"
 xmlns:xlink="http://www.w3.org/1999/xlink">
 <defs>
  <style type="text/css">
   <![CDATA[
    .fil0 {fill:black;fill-rule:nonzero}
   ]]>
  </style>
 </defs>
 <g id="black-logo">
  <metadata id="CorelCorpID_0Corel-Layer"/>
  <g id="_1750111176656">
   <path class="fil0" d="M0 71c0,-4 0,-9 0,-14 1,-5 2,-10 3,-14 2,-4 3,-7 5,-8 2,-1 4,0 6,4 8,29 21,50 39,63 18,13 40,22 65,26 28,6 59,7 95,5 36,-3 73,-6 113,-11 39,-6 80,-11 121,-16 42,-5 81,-8 119,-8 23,-15 46,-28 69,-40 23,-12 45,-22 65,-31 21,-8 39,-15 56,-20 18,-5 32,-7 44,-7 18,0 35,2 51,6 16,5 30,11 42,19 12,8 22,17 29,28 7,11 10,23 9,35 0,24 -5,48 -14,73 -9,25 -21,50 -36,73 -15,24 -32,46 -51,67 -19,21 -39,39 -58,54 -20,16 -40,28 -60,37 -19,9 -37,14 -53,14 -24,0 -41,-5 -50,-15 -10,-9 -15,-22 -16,-37 0,-15 4,-32 11,-50 8,-19 17,-37 29,-56 11,-18 23,-35 37,-51 13,-17 26,-29 38,-39 -16,-9 -35,-15 -57,-18 -27,19 -55,40 -83,62 -28,22 -54,45 -76,68 -23,23 -41,46 -55,69 -14,23 -22,45 -22,65 -1,12 5,22 17,30 12,8 27,15 45,22 17,7 36,13 57,20 21,7 39,16 55,25 17,10 29,21 38,35 9,14 12,31 7,51 -7,27 -18,51 -35,72 -17,21 -37,38 -61,52 -24,14 -50,24 -78,31 -29,6 -57,8 -86,7 -31,-2 -55,-7 -71,-17 -17,-9 -28,-20 -33,-34 -6,-14 -6,-28 -1,-45 4,-16 12,-31 22,-46 11,-14 24,-27 40,-39 16,-11 32,-20 49,-24 16,-5 26,-6 28,-4 3,1 -3,7 -19,16 -25,14 -46,30 -60,47 -15,17 -24,33 -26,47 -3,15 1,27 11,37 10,10 27,16 52,17 20,1 40,-2 59,-8 20,-7 39,-16 56,-27 17,-11 32,-23 44,-37 13,-13 22,-27 28,-39 6,-13 8,-25 5,-36 -2,-11 -9,-19 -22,-25 -10,-4 -22,-9 -36,-14 -14,-5 -29,-11 -44,-18 -16,-7 -31,-14 -46,-23 -15,-8 -28,-18 -40,-28 -12,-11 -21,-22 -28,-35 -6,-13 -9,-27 -8,-44 1,-18 6,-36 14,-55 8,-19 19,-38 33,-56 13,-19 29,-37 48,-54 18,-18 37,-35 58,-52 -27,6 -55,13 -83,19 -28,7 -56,14 -84,20 -27,6 -54,10 -81,14 -26,4 -51,5 -74,4 -22,0 -43,-3 -62,-8 -19,-5 -35,-13 -50,-24 -14,-11 -26,-25 -35,-42 -9,-18 -15,-40 -18,-65zm716 123c-9,9 -18,20 -28,33 -10,13 -19,27 -28,42 -8,14 -16,28 -21,42 -6,13 -9,25 -10,35 0,10 3,17 9,21 6,4 17,3 33,-1 11,-4 24,-10 39,-20 15,-11 30,-23 46,-38 15,-15 30,-32 46,-50 15,-18 29,-36 41,-55 12,-19 22,-37 30,-56 8,-18 13,-35 15,-51 2,-17 -4,-29 -17,-36 -13,-7 -33,-8 -58,-4 -11,2 -27,8 -48,18 -21,10 -45,23 -73,40 12,4 23,9 34,14 6,4 11,8 14,11 4,4 7,7 10,10 3,4 4,8 5,13 0,6 -1,10 -4,14 -1,2 -3,3 -7,4 -3,0 -6,1 -8,1 -4,1 -8,2 -11,5 -4,3 -7,5 -9,8zm190 228c-11,15 -21,29 -30,42 -9,13 -18,27 -28,43 14,-15 27,-29 41,-42 14,-13 27,-25 41,-34 14,-10 27,-17 40,-22 14,-6 27,-8 41,-6 28,2 42,17 42,47 0,13 -5,28 -14,46 -10,18 -21,36 -34,55 -13,19 -26,37 -39,54 -12,17 -22,32 -29,43 -6,10 -9,18 -9,23 0,5 2,8 6,9 3,1 8,0 14,-3 7,-3 13,-7 19,-13 8,-7 18,-16 31,-27 12,-11 25,-23 38,-36 14,-12 27,-25 40,-39 12,-13 23,-24 32,-35 4,-4 8,-7 11,-8 4,-1 7,0 9,1 2,2 4,5 4,8 1,3 0,8 -3,12 -13,18 -28,37 -46,59 -18,21 -36,40 -56,59 -19,18 -38,34 -57,47 -20,13 -37,19 -54,20 -22,1 -39,-5 -50,-19 -10,-14 -13,-31 -9,-53 2,-8 7,-18 14,-31 8,-13 16,-27 26,-42 9,-15 19,-30 29,-46 10,-15 18,-29 25,-42 7,-13 12,-23 14,-31 2,-7 0,-11 -6,-11 -7,0 -17,5 -31,16 -15,11 -30,24 -47,40 -16,15 -33,32 -49,50 -17,18 -31,34 -44,49l0 1 -50 84c-5,8 -9,15 -12,20 -3,5 -5,9 -7,12 -2,2 -3,4 -5,5 -1,1 -3,1 -5,1 -10,0 -18,-3 -24,-10 -6,-6 -10,-14 -13,-22 -2,-9 -4,-18 -3,-27 1,-9 2,-15 5,-20 13,-24 30,-54 50,-88 19,-34 41,-70 65,-107 24,-37 49,-74 76,-112 26,-38 53,-72 81,-103 28,-32 55,-59 81,-81 27,-22 52,-37 76,-44 8,-2 16,-2 25,2 8,3 15,9 21,16 6,7 10,16 12,25 2,10 0,19 -5,29 -27,49 -62,93 -104,130 -42,37 -91,73 -146,106zm225 -261c-21,5 -47,24 -79,58 -31,34 -70,88 -117,160 19,-14 37,-29 56,-45 18,-17 36,-34 52,-50 16,-17 31,-33 45,-48 13,-15 24,-28 32,-40 8,-11 13,-20 16,-27 2,-6 0,-9 -5,-8zm151 244c16,2 26,9 30,22 3,-9 5,-15 4,-20 -1,-4 1,-6 5,-7 4,-1 9,-1 15,1 7,2 13,4 21,8 7,4 14,9 19,15 5,6 9,13 12,20 2,7 2,14 -2,22 -2,4 -8,12 -17,25 -8,12 -19,26 -31,42 -11,16 -23,32 -36,50 -12,18 -23,34 -32,48 -9,15 -15,28 -19,38 -4,11 -3,16 3,17 6,2 16,-2 30,-13 13,-10 28,-24 45,-40 17,-16 34,-34 52,-53 18,-20 34,-37 48,-53 4,-4 7,-7 11,-8 3,-1 6,0 9,1 2,2 4,5 4,8 1,3 0,8 -3,12 -13,18 -28,37 -46,59 -18,21 -37,40 -56,59 -19,18 -38,34 -58,47 -19,13 -37,19 -53,20 -12,0 -21,-1 -28,-5 -7,-3 -12,-8 -16,-14 -4,-5 -7,-12 -8,-19 -2,-7 -3,-14 -2,-21 -14,16 -28,29 -42,40 -14,10 -28,16 -42,16 -17,1 -30,-4 -40,-13 -10,-10 -15,-24 -16,-41 -1,-18 3,-40 12,-65 10,-24 25,-52 47,-83 12,-16 25,-31 38,-45 14,-15 29,-27 44,-38 15,-11 30,-19 47,-25 17,-6 34,-8 51,-7zm-177 284c9,-1 18,-5 27,-12 9,-7 19,-16 30,-28 10,-11 21,-24 33,-38 11,-15 23,-30 36,-47 9,-13 17,-27 26,-42 9,-14 17,-27 25,-40 3,-5 6,-11 8,-17 2,-5 4,-10 5,-15 1,-5 1,-9 0,-13 -2,-3 -5,-5 -10,-5 -6,0 -14,3 -24,10 -9,6 -20,15 -32,25 -11,11 -23,22 -36,36 -13,13 -24,26 -35,40 -13,17 -25,34 -34,52 -9,17 -16,33 -21,47 -4,14 -7,26 -7,34 0,9 3,13 9,13zm355 -65c4,-8 11,-19 19,-33 8,-15 16,-29 24,-44 8,-15 14,-29 19,-41 6,-13 7,-22 6,-26 -2,-4 -4,-8 -6,-11 -2,-3 -4,-7 -6,-10l-39 48c-13,16 -26,33 -40,51 -4,3 -7,5 -11,5 -3,0 -6,-1 -9,-3 -2,-2 -3,-5 -4,-9 0,-4 1,-8 4,-11 11,-15 22,-29 34,-44 11,-15 23,-31 36,-46 5,-5 8,-12 9,-19 1,-8 2,-17 4,-27l1 -6c3,-15 9,-30 19,-46 9,-17 20,-32 33,-46 12,-14 25,-26 38,-37 13,-10 24,-16 34,-19 6,-1 13,0 21,4 8,4 16,9 23,15 7,7 12,14 17,21 4,6 5,12 3,16 -27,10 -53,26 -78,48 -25,22 -43,48 -54,78 -3,6 -3,11 -2,16 2,5 4,11 8,17 3,6 7,13 12,20 5,7 10,15 14,25 3,6 2,14 -3,25 -5,11 -11,22 -19,35 -7,12 -16,25 -25,38 -9,13 -16,25 -22,35 -6,10 -9,18 -10,25 -1,6 4,8 12,7 4,0 12,-5 25,-15 12,-9 25,-21 41,-35 15,-15 32,-31 49,-48 17,-17 32,-34 46,-50 4,-4 8,-7 11,-8 4,-1 6,0 9,1 2,2 4,5 4,8 1,3 0,8 -3,12 -13,19 -29,39 -47,60 -18,21 -37,40 -56,58 -18,18 -36,33 -54,45 -18,12 -32,19 -44,21 -15,2 -26,-1 -35,-7 -9,-6 -15,-14 -18,-24 -4,-10 -5,-22 -3,-34 2,-13 6,-24 13,-35zm146 24c5,-12 11,-25 19,-40 8,-15 17,-31 27,-47 10,-16 20,-33 31,-49 10,-16 19,-31 27,-45 8,-13 15,-26 20,-36 5,-10 6,-18 5,-24 -1,-6 2,-9 11,-8 8,1 18,4 28,10 10,5 19,13 26,23 8,10 9,22 5,34 -2,5 -6,13 -14,25 -8,12 -18,25 -28,40 -10,15 -22,31 -33,48 -12,17 -22,33 -30,47 -9,14 -15,26 -18,36 -4,9 -4,14 1,16 7,1 16,-3 29,-12 12,-9 26,-22 42,-37 16,-15 32,-32 49,-50 16,-19 32,-36 46,-52 3,-4 7,-7 11,-8 3,-1 6,0 9,1 2,2 4,5 4,8 1,3 -1,8 -4,12 -13,18 -28,37 -46,59 -17,21 -36,40 -55,59 -19,18 -38,34 -58,47 -19,13 -37,19 -53,20 -15,1 -26,-1 -34,-7 -7,-6 -13,-13 -16,-22 -3,-8 -5,-17 -4,-26 0,-9 1,-16 3,-22zm184 -264c-6,-4 -9,-8 -10,-11 0,-3 1,-8 5,-15 3,-8 8,-17 13,-28 6,-10 12,-21 19,-31 6,-11 13,-20 21,-29 7,-8 14,-14 21,-18 5,-3 12,-3 21,-1 10,3 18,6 26,11 8,5 15,11 21,17 5,6 7,11 6,16 -26,15 -49,35 -68,61 -11,15 -23,25 -34,31 -12,6 -26,5 -41,-3zm29 304c-10,16 -17,26 -20,30 -4,4 -7,6 -11,6 -10,0 -18,-3 -23,-9 -5,-6 -9,-14 -11,-22 -2,-8 -2,-16 -1,-25 1,-8 3,-14 6,-19 9,-16 22,-36 38,-60 16,-24 32,-48 47,-73 16,-25 29,-48 41,-69 12,-22 19,-37 20,-48 1,-4 3,-6 8,-6 4,-1 10,0 16,2 6,2 12,6 19,11 7,5 13,10 18,16 5,6 8,12 10,19 1,6 1,13 -3,19 -2,4 -5,10 -11,19 -5,8 -12,17 -19,29 13,-15 26,-28 39,-41 14,-14 27,-26 40,-36 13,-9 26,-17 39,-22 13,-5 27,-8 40,-6 28,2 42,17 42,47 0,13 -5,28 -14,46 -10,19 -21,37 -33,56 -13,20 -26,38 -38,56 -13,17 -23,32 -29,43 -7,10 -10,18 -10,23 0,5 2,8 6,9 3,1 9,0 15,-3 6,-3 13,-7 19,-13 8,-7 17,-16 29,-28 12,-11 25,-23 39,-36 13,-14 26,-27 39,-40 13,-13 24,-25 33,-36 3,-4 7,-7 11,-8 3,-1 6,0 8,1 3,2 4,5 5,8 0,3 -1,8 -3,12 -13,18 -29,37 -47,59 -17,21 -36,40 -55,59 -20,18 -39,34 -58,47 -19,13 -37,19 -54,20 -23,1 -40,-5 -50,-19 -11,-14 -14,-31 -9,-53 2,-8 6,-18 14,-31 7,-13 16,-27 25,-42 10,-15 20,-30 30,-46 9,-15 18,-29 25,-42 7,-13 11,-23 14,-31 2,-7 0,-11 -5,-11 -8,0 -19,5 -32,15 -14,10 -29,23 -45,38 -16,15 -33,31 -49,48 -17,18 -31,34 -43,48l-62 89zm463 94c-16,28 -34,58 -54,92 -19,34 -41,69 -64,103 -23,34 -48,68 -74,100 -27,33 -54,61 -83,86 -29,24 -59,44 -90,58 -31,14 -64,20 -97,19 -19,-2 -36,-6 -51,-14 -14,-8 -25,-19 -34,-33 -8,-13 -14,-29 -17,-47 -3,-18 -3,-37 0,-57 4,-34 15,-64 33,-92 19,-27 41,-51 68,-73 28,-22 58,-42 93,-59 34,-18 69,-34 105,-48 36,-14 72,-28 108,-40 36,-12 70,-24 101,-36l27 -47c-9,8 -19,15 -29,20 -9,5 -19,8 -28,8 -17,1 -30,-4 -41,-13 -10,-10 -15,-24 -16,-41 -1,-18 3,-40 13,-65 9,-24 25,-52 47,-83 11,-16 24,-31 38,-45 13,-15 28,-27 43,-38 15,-11 31,-19 48,-25 16,-6 33,-8 51,-7 15,2 24,8 28,18l3 -16c0,-4 3,-6 8,-7 4,-1 10,-1 17,1 6,2 13,5 21,10 7,4 13,9 18,14 5,6 9,12 10,19 2,7 0,14 -4,22 -11,17 -22,35 -33,54 -12,20 -23,39 -35,59 -12,20 -24,40 -37,60 -12,20 -23,39 -34,56 19,-10 37,-21 53,-32 17,-12 33,-24 49,-38 16,-14 31,-29 48,-46 16,-17 33,-35 52,-56 6,-4 12,-5 17,-1 5,4 6,9 2,17 -20,27 -41,51 -61,72 -20,22 -41,40 -62,57 -21,16 -43,31 -65,44 -22,14 -45,26 -69,37l-23 33zm-465 430c26,2 54,-8 85,-30 30,-22 61,-52 93,-91 33,-39 66,-84 100,-136 34,-52 69,-106 103,-164 -23,9 -49,19 -77,30 -28,10 -58,22 -87,35 -30,12 -60,26 -90,41 -30,15 -58,32 -84,50 -25,18 -48,38 -67,59 -20,22 -34,45 -44,70 -5,14 -8,29 -7,44 1,16 4,30 11,43 6,13 14,24 25,33 11,9 24,15 39,16zm386 -523c8,-1 17,-5 27,-12 9,-7 19,-16 29,-28 11,-11 22,-24 33,-38 12,-15 24,-30 37,-47 8,-13 17,-27 26,-42 8,-14 17,-27 25,-40 3,-5 5,-11 8,-17 2,-5 4,-10 5,-15 1,-5 1,-9 -1,-13 -1,-3 -4,-5 -10,-5 -6,0 -13,3 -23,10 -10,6 -20,15 -32,25 -12,11 -24,22 -36,36 -13,13 -25,26 -35,40 -14,17 -25,34 -34,52 -10,17 -17,33 -21,47 -5,14 -7,26 -7,34 0,9 3,13 9,13z"/>
   <path class="fil0" d="M2705 374c10,-38 25,-73 46,-105 22,-32 46,-62 74,-88 28,-27 58,-50 92,-71 33,-20 67,-38 103,-52 35,-14 70,-25 105,-32 35,-8 68,-12 100,-12 19,0 39,0 60,1 21,1 42,3 62,7 21,3 40,9 58,17 18,8 34,18 47,32 13,13 23,30 30,50 7,20 8,44 5,72 -3,24 -10,50 -22,78 -12,29 -28,57 -48,85 -20,28 -44,56 -71,82 -28,27 -58,50 -92,71 -33,21 -69,38 -108,51 -39,13 -79,19 -122,21 -13,22 -25,43 -36,63 -12,20 -21,39 -29,55 -8,17 -13,31 -16,43 -4,11 -4,21 -2,27 -4,3 -10,3 -16,0 -7,-2 -14,-7 -20,-13 -6,-7 -12,-15 -17,-26 -5,-10 -7,-22 -8,-36 -1,-7 4,-22 16,-45 11,-23 26,-51 44,-83 -10,-4 -20,-9 -29,-15 -9,-6 -16,-13 -22,-20 -4,-6 -4,-11 0,-14 4,-4 9,-3 14,2 14,13 30,22 49,27 19,-32 39,-66 60,-101 22,-36 42,-70 62,-102 19,-33 37,-62 51,-87 15,-26 26,-45 31,-56 4,-9 7,-17 9,-24 3,-6 4,-11 3,-16 0,-5 2,-9 7,-9 5,0 11,2 18,5 7,4 14,8 22,15 8,6 14,13 20,22 6,8 10,16 12,25 2,9 0,17 -4,24 -14,22 -30,45 -46,70 -17,25 -34,51 -51,78 -18,27 -36,55 -54,82 -18,28 -35,55 -51,81 28,-2 56,-11 83,-24 27,-14 53,-31 78,-52 24,-21 47,-44 68,-69 21,-25 40,-50 56,-76 15,-25 28,-49 37,-73 10,-23 15,-43 17,-60 2,-34 -1,-60 -11,-80 -9,-20 -22,-35 -38,-45 -16,-10 -34,-16 -54,-18 -20,-2 -38,-3 -56,-2 -33,1 -67,9 -102,22 -34,14 -68,31 -101,53 -32,21 -64,47 -93,75 -30,29 -56,59 -80,91 -23,32 -43,65 -59,99 -16,34 -26,67 -31,100 -2,5 -6,4 -13,-1 -7,-6 -15,-15 -22,-26 -7,-12 -13,-26 -17,-43 -4,-16 -3,-33 2,-50zm829 31c16,2 26,9 30,22 3,-9 5,-15 4,-20 -1,-4 1,-6 5,-7 4,-1 9,-1 15,1 7,2 13,4 21,8 7,4 14,9 19,15 6,6 9,13 12,20 2,7 2,14 -2,22 -2,4 -8,12 -17,25 -8,12 -19,26 -31,42 -11,16 -23,32 -36,50 -12,18 -23,34 -32,48 -9,15 -15,28 -19,38 -4,11 -3,16 3,17 6,2 16,-2 30,-13 13,-10 28,-24 45,-40 17,-16 34,-34 52,-53 18,-20 34,-37 48,-53 4,-4 7,-7 11,-8 3,-1 6,0 9,1 2,2 4,5 4,8 1,3 0,8 -3,12 -13,18 -28,37 -46,59 -18,21 -37,40 -56,59 -19,18 -38,34 -58,47 -19,13 -37,19 -53,20 -12,0 -21,-1 -28,-5 -7,-3 -12,-8 -16,-14 -4,-5 -7,-12 -8,-19 -2,-7 -3,-14 -2,-21 -14,16 -28,29 -42,40 -14,10 -28,16 -42,16 -17,1 -30,-4 -40,-13 -10,-10 -15,-24 -16,-41 -1,-18 3,-40 12,-65 10,-24 25,-52 47,-83 12,-16 25,-31 38,-45 14,-15 29,-27 44,-38 15,-11 30,-19 47,-25 17,-6 34,-8 51,-7zm-177 284c9,-1 18,-5 27,-12 9,-7 19,-16 30,-28 10,-11 21,-24 33,-38 11,-15 23,-30 36,-47 9,-13 17,-27 26,-42 9,-14 17,-27 25,-40 3,-5 6,-11 8,-17 2,-5 4,-10 5,-15 1,-5 1,-9 0,-13 -2,-3 -5,-5 -10,-5 -6,0 -14,3 -23,10 -10,6 -21,15 -33,25 -11,11 -23,22 -36,36 -13,13 -24,26 -35,40 -13,17 -25,34 -34,52 -9,17 -16,33 -21,47 -4,14 -7,26 -7,34 0,9 3,13 9,13zm296 -1c-11,16 -18,26 -21,30 -3,4 -7,6 -10,6 -10,0 -18,-3 -24,-9 -5,-6 -8,-14 -10,-22 -2,-8 -3,-16 -2,-25 2,-8 3,-14 6,-19 10,-16 23,-36 39,-60 16,-24 31,-48 47,-73 15,-25 29,-48 41,-69 12,-22 18,-37 20,-48 0,-4 3,-6 7,-6 5,-1 10,0 16,2 7,2 13,6 20,11 6,5 12,10 17,16 5,6 9,12 10,19 2,6 1,13 -2,19 -2,4 -6,10 -11,19 -6,8 -12,17 -20,29 14,-15 27,-28 40,-41 13,-14 26,-26 39,-36 14,-9 27,-17 40,-22 13,-5 26,-8 39,-6 28,2 42,17 42,47 0,13 -5,28 -14,46 -9,19 -20,37 -33,56 -12,20 -25,38 -38,56 -13,17 -22,32 -29,43 -6,10 -9,18 -9,23 0,5 2,8 5,9 4,1 9,0 15,-3 7,-3 13,-7 20,-13 7,-7 17,-16 29,-28 12,-11 25,-23 38,-36 13,-14 27,-27 39,-40 13,-13 24,-25 33,-36 4,-4 8,-7 11,-8 4,-1 6,0 9,1 2,2 4,5 4,8 1,3 0,8 -3,12 -13,18 -28,37 -46,59 -18,21 -37,40 -56,59 -19,18 -38,34 -57,47 -20,13 -38,19 -54,20 -23,1 -40,-5 -51,-19 -10,-14 -13,-31 -9,-53 2,-8 7,-18 14,-31 8,-13 16,-27 26,-42 9,-15 19,-30 29,-46 10,-15 18,-29 25,-42 7,-13 12,-23 14,-31 3,-7 1,-11 -5,-11 -7,0 -18,5 -32,15 -14,10 -29,23 -45,38 -16,15 -32,31 -49,48 -16,18 -30,34 -42,48l-62 89zm605 -140c-5,11 -12,25 -19,40 -8,15 -15,30 -20,43 -5,13 -8,25 -8,34 0,9 5,14 14,14 13,0 27,-5 44,-15 17,-10 35,-22 53,-37 18,-15 37,-31 55,-49 19,-18 36,-35 52,-51 4,-4 8,-6 11,-7 4,-1 7,-1 10,1 2,1 3,4 4,7 0,3 -1,8 -4,12 -13,18 -29,38 -48,59 -19,22 -40,42 -62,61 -21,19 -43,34 -64,47 -22,12 -42,18 -60,18 -16,-1 -29,-4 -38,-11 -9,-7 -16,-15 -20,-25 -5,-10 -7,-22 -8,-34 0,-13 1,-26 2,-38 -9,13 -19,26 -29,38 -10,13 -21,24 -31,34 -10,10 -21,18 -32,24 -10,6 -21,9 -31,9 -17,1 -31,-4 -40,-13 -10,-10 -16,-24 -17,-41 0,-18 4,-40 13,-65 10,-24 25,-52 47,-83 12,-16 25,-31 38,-45 14,-15 28,-27 44,-38 15,-11 31,-19 47,-25 17,-6 34,-8 52,-7 11,2 20,6 24,12 22,-37 45,-72 69,-105 25,-34 50,-64 76,-91 25,-27 51,-50 76,-69 26,-18 50,-31 73,-38 8,-2 16,-2 25,2 8,3 16,9 21,16 6,7 10,16 12,25 2,10 0,19 -5,29 -14,25 -31,51 -52,79 -21,27 -44,55 -70,81 -26,27 -53,53 -81,77 -29,24 -57,44 -85,61l-37 64 -1 0zm301 -387c-11,3 -25,12 -42,28 -17,16 -36,36 -57,62 -22,25 -44,54 -68,87 -23,33 -47,67 -70,104 19,-14 39,-31 59,-50 21,-20 41,-40 60,-61 19,-21 37,-42 54,-63 17,-21 31,-39 42,-55 12,-16 19,-29 24,-39 4,-10 3,-14 -2,-13zm-529 528c8,-1 17,-5 27,-12 9,-7 19,-16 29,-28 11,-11 22,-24 33,-38 12,-15 24,-30 37,-47 8,-13 17,-27 26,-42 9,-14 17,-27 25,-40 2,-5 5,-10 7,-16 3,-6 5,-11 6,-17 1,-5 1,-9 -1,-12 -1,-3 -4,-5 -10,-5 -5,0 -13,3 -23,10 -9,6 -20,15 -32,25 -12,11 -24,22 -36,36 -13,13 -25,26 -35,40 -14,17 -25,34 -34,52 -10,18 -17,33 -22,47 -4,14 -7,26 -6,34 0,9 3,13 9,13zm573 -284c16,2 25,9 30,22 3,-9 4,-15 4,-20 -1,-4 0,-6 5,-7 4,-1 9,-1 15,1 6,2 13,4 21,8 7,4 14,9 19,15 5,6 9,13 11,20 3,7 2,14 -2,22 -2,4 -7,12 -16,25 -9,12 -19,26 -31,42 -12,16 -24,32 -36,50 -12,18 -23,34 -32,48 -9,15 -15,28 -19,38 -4,11 -3,16 3,17 6,2 16,-2 29,-13 14,-10 29,-24 46,-40 17,-16 34,-34 52,-53 18,-20 34,-37 48,-53 4,-4 7,-7 11,-8 3,-1 6,0 8,1 3,2 4,5 5,8 0,3 -1,8 -3,12 -13,18 -29,37 -46,59 -18,21 -37,40 -56,59 -19,18 -39,34 -58,47 -19,13 -37,19 -54,20 -11,0 -20,-1 -27,-5 -7,-3 -12,-8 -16,-14 -4,-5 -7,-12 -9,-19 -1,-7 -2,-14 -1,-21 -14,16 -28,29 -42,40 -15,10 -29,16 -43,16 -16,1 -29,-4 -39,-13 -10,-10 -15,-24 -16,-41 -1,-18 3,-40 12,-65 9,-24 25,-52 47,-83 11,-16 24,-31 38,-45 14,-15 28,-27 43,-38 15,-11 31,-19 48,-25 16,-6 33,-8 51,-7zm-177 284c8,-1 17,-5 27,-12 9,-7 19,-16 29,-28 11,-11 22,-24 33,-38 12,-15 24,-30 37,-47 8,-13 17,-27 26,-42 9,-14 17,-27 25,-40 3,-5 5,-11 8,-17 2,-5 4,-10 5,-15 1,-5 1,-9 -1,-13 -1,-3 -4,-5 -10,-5 -5,0 -13,3 -23,10 -9,6 -20,15 -32,25 -12,11 -24,22 -36,36 -13,13 -25,26 -35,40 -14,17 -25,34 -34,52 -10,17 -17,33 -21,47 -5,14 -7,26 -7,34 0,9 3,13 9,13z"/>
  </g>
 </g>
</svg>
