<?xml version="1.0" encoding="UTF-8"?>
<!DOCTYPE svg PUBLIC "-//W3C//DTD SVG 1.1//EN" "http://www.w3.org/Graphics/SVG/1.1/DTD/svg11.dtd">
<!-- Creator: CorelDRAW X8 -->
<svg xmlns="http://www.w3.org/2000/svg" xml:space="preserve" width="63.4435mm" height="19.2018mm" version="1.1" style="shape-rendering:geometricPrecision; text-rendering:geometricPrecision; image-rendering:optimizeQuality; fill-rule:evenodd; clip-rule:evenodd"
viewBox="0 0 5364 1624"
 xmlns:xlink="http://www.w3.org/1999/xlink">
 <defs>
  <style type="text/css">
   <![CDATA[
    .fil0 {fill:black}
    .fil1 {fill:#111111}
    .fil2 {fill:black;fill-rule:nonzero}
   ]]>
  </style>
 </defs>
 <g id="Layer_x0020_1">
  <metadata id="CorelCorpID_0Corel-Layer"/>
  <g id="_2198468184160">
   <g>
    <path class="fil0" d="M3451 61c-174,-20 -429,158 -482,400 -62,284 125,521 321,590 290,102 439,-156 292,-347 -31,-40 -84,-84 -122,-122 -90,-91 -186,-191 -150,-357 12,-56 31,-82 74,-118 20,-17 44,-31 67,-46z"/>
    <path class="fil0" d="M3714 338c15,-16 22,-43 13,-76 -2,-10 -18,-38 -43,-37 -19,1 -43,10 -42,64 0,23 1,39 9,46 27,26 38,28 63,3z"/>
    <path class="fil0" d="M3468 242c10,12 7,26 44,16 39,-4 88,-66 64,-92 -52,-56 -122,34 -108,76z"/>
    <path class="fil0" d="M3507 55c2,0 6,1 7,1 48,4 89,13 127,26 -6,-29 -11,-46 -21,-58 -26,-28 -57,-31 -88,-11 -17,12 -25,42 -25,42z"/>
    <path class="fil0" d="M3733 118c19,7 71,52 110,98 32,-100 -64,-146 -110,-98z"/>
    <path class="fil1" d="M3590 341c-15,-2 -28,-10 -41,-21 8,33 -6,33 41,21z"/>
   </g>
   <path class="fil2" d="M0 310c0,-4 0,-9 0,-15 1,-6 2,-12 4,-16 1,-5 3,-8 5,-9 2,-2 4,0 7,4 9,33 23,57 44,71 20,14 45,24 73,30 31,6 66,7 106,5 40,-3 83,-7 127,-13 45,-6 90,-11 137,-17 46,-6 91,-9 133,-10 26,-16 52,-31 78,-44 26,-14 50,-25 73,-35 23,-9 44,-17 63,-22 19,-6 35,-8 49,-8 20,-1 39,1 57,6 18,5 34,12 48,21 13,9 24,20 32,32 7,13 11,26 10,40 0,26 -6,53 -16,82 -10,28 -24,55 -40,82 -17,26 -36,51 -58,74 -21,24 -43,44 -65,62 -22,17 -44,31 -67,41 -22,10 -42,15 -60,15 -26,0 -45,-5 -56,-16 -11,-11 -17,-25 -17,-42 -1,-17 3,-36 12,-56 8,-21 19,-42 32,-63 13,-20 27,-40 42,-58 15,-18 29,-32 42,-43 -17,-10 -38,-17 -63,-20 -31,21 -63,44 -94,69 -32,25 -60,51 -85,77 -26,26 -46,52 -62,78 -16,25 -24,50 -25,73 0,13 6,24 20,33 13,9 30,17 50,25 19,7 41,15 64,23 23,7 44,17 62,28 18,10 33,23 43,39 10,15 13,34 7,57 -7,31 -20,58 -39,81 -19,23 -42,43 -69,59 -26,15 -56,27 -87,34 -32,7 -64,10 -97,8 -35,-2 -61,-8 -80,-19 -19,-10 -31,-23 -37,-38 -6,-16 -6,-32 -1,-50 5,-18 13,-36 25,-52 12,-17 27,-31 45,-44 18,-13 36,-22 55,-28 18,-4 29,-6 32,-4 3,2 -4,8 -22,18 -28,16 -51,34 -68,53 -16,19 -26,37 -29,53 -3,16 1,30 13,42 11,11 31,17 58,18 22,2 45,-1 67,-9 22,-7 43,-17 62,-30 19,-12 36,-26 50,-41 14,-15 25,-30 31,-45 7,-14 9,-27 6,-40 -2,-12 -10,-21 -25,-27 -11,-5 -25,-10 -40,-16 -16,-7 -32,-13 -50,-21 -17,-7 -34,-16 -51,-25 -17,-10 -32,-21 -45,-32 -13,-12 -24,-25 -31,-40 -8,-14 -11,-30 -10,-48 1,-21 7,-42 16,-63 9,-21 22,-42 37,-63 15,-21 33,-41 54,-61 20,-20 42,-39 65,-57 -30,6 -61,13 -93,21 -31,8 -63,15 -94,22 -31,6 -62,12 -91,16 -30,4 -57,6 -84,5 -24,-1 -47,-4 -69,-10 -21,-6 -40,-14 -56,-26 -16,-12 -30,-28 -40,-48 -10,-20 -17,-44 -20,-73zm804 139c-10,10 -20,22 -31,37 -11,15 -22,30 -31,46 -10,17 -18,32 -24,48 -7,15 -11,28 -11,39 0,11 3,19 10,24 7,4 19,4 37,-2 12,-3 27,-11 44,-22 17,-12 34,-26 51,-43 17,-16 35,-35 52,-55 17,-21 32,-42 46,-63 14,-21 25,-41 34,-62 9,-21 15,-40 17,-57 1,-20 -5,-34 -20,-41 -14,-8 -36,-9 -65,-4 -12,1 -30,8 -54,19 -23,12 -50,27 -81,45 13,5 26,11 38,17 6,4 12,8 16,12 4,4 8,8 11,11 3,4 5,9 5,15 1,6 -1,11 -4,16 -2,2 -4,3 -8,3 -3,1 -6,2 -9,2 -5,1 -9,3 -13,6 -4,3 -7,6 -10,9zm214 255c-13,18 -23,34 -33,48 -10,15 -21,30 -32,48 15,-17 31,-33 46,-47 15,-15 31,-28 46,-39 15,-10 30,-19 45,-24 15,-6 31,-8 46,-7 31,2 47,20 47,53 0,14 -5,32 -16,52 -11,20 -23,40 -38,61 -14,21 -29,42 -43,61 -14,20 -26,36 -33,48 -7,12 -10,20 -10,26 0,6 2,9 6,10 4,2 10,1 17,-3 7,-3 14,-8 21,-15 9,-7 20,-17 34,-30 14,-12 28,-25 43,-40 15,-14 30,-29 44,-43 15,-15 27,-29 37,-41 5,-4 9,-7 13,-8 3,-1 7,-1 9,1 3,2 5,5 5,9 1,4 0,8 -3,14 -15,20 -32,41 -52,65 -20,24 -41,46 -63,67 -21,20 -43,38 -64,52 -22,15 -42,22 -61,23 -25,1 -44,-6 -56,-21 -12,-16 -15,-35 -10,-59 2,-9 7,-21 16,-36 8,-15 18,-30 29,-47 10,-17 21,-34 32,-51 12,-18 21,-34 29,-48 8,-14 13,-25 15,-34 3,-9 0,-13 -6,-13 -8,0 -20,6 -36,18 -16,12 -33,27 -52,45 -18,17 -37,36 -55,56 -19,20 -35,39 -49,56l-1 1 -56 93c-5,10 -10,18 -13,23 -3,6 -6,10 -8,13 -2,3 -4,5 -5,6 -2,1 -4,2 -6,2 -12,0 -21,-4 -27,-11 -7,-7 -12,-16 -15,-26 -3,-10 -4,-20 -3,-30 0,-10 2,-17 5,-22 15,-27 34,-60 56,-99 22,-38 47,-78 73,-120 27,-42 56,-84 86,-126 30,-43 60,-81 91,-116 31,-36 61,-66 91,-91 30,-25 59,-42 85,-50 9,-2 18,-1 28,3 10,4 18,10 24,18 7,8 11,17 13,28 3,11 1,22 -5,33 -30,55 -69,103 -117,145 -47,43 -102,82 -164,119zm253 -292c-24,5 -53,27 -89,65 -35,38 -79,98 -131,180 21,-16 42,-33 62,-52 21,-18 41,-37 59,-56 18,-18 35,-36 50,-53 15,-17 27,-32 36,-45 10,-13 16,-23 18,-30 2,-8 1,-11 -5,-9zm170 273c17,2 28,10 33,25 4,-10 5,-17 5,-22 -1,-5 0,-7 5,-8 5,-1 11,-1 18,1 7,2 14,5 23,9 8,5 15,11 21,17 6,7 11,14 13,22 3,8 2,17 -2,25 -2,5 -8,14 -18,28 -10,14 -22,29 -35,47 -13,18 -27,37 -41,56 -13,20 -25,38 -36,55 -10,16 -17,31 -21,42 -4,12 -3,18 3,20 7,1 18,-3 33,-15 16,-12 33,-27 52,-45 19,-19 38,-39 58,-60 20,-22 38,-42 54,-60 4,-4 8,-7 12,-8 4,-1 7,-1 10,1 3,2 4,5 5,9 0,4 -1,8 -4,14 -14,20 -32,41 -52,65 -20,24 -41,46 -62,67 -22,20 -43,38 -65,52 -22,15 -42,22 -60,23 -13,1 -23,-1 -31,-5 -8,-4 -14,-9 -19,-16 -4,-6 -7,-14 -9,-22 -2,-8 -2,-16 -2,-23 -15,18 -31,32 -47,44 -16,12 -32,19 -47,19 -19,1 -34,-4 -45,-15 -11,-11 -17,-26 -18,-46 -1,-21 4,-45 14,-73 10,-27 28,-59 52,-93 13,-18 28,-35 43,-51 16,-16 32,-30 49,-42 17,-12 35,-22 53,-28 19,-7 38,-10 58,-9zm-199 319c9,0 19,-5 30,-13 11,-8 22,-18 33,-31 12,-12 24,-27 37,-43 13,-17 27,-34 41,-52 10,-16 20,-32 30,-48 9,-15 19,-31 28,-45 3,-6 6,-12 8,-19 3,-6 5,-12 6,-17 2,-5 1,-10 0,-14 -2,-4 -5,-6 -11,-6 -7,0 -16,4 -27,11 -10,7 -22,17 -36,28 -13,12 -26,25 -41,40 -14,15 -27,30 -39,45 -15,20 -28,39 -38,59 -11,19 -18,37 -23,53 -6,16 -8,29 -8,38 0,10 3,15 10,14zm398 -73c5,-9 13,-21 22,-37 9,-16 18,-32 27,-49 9,-17 16,-32 22,-46 5,-15 7,-24 6,-30 -2,-4 -4,-8 -7,-11 -2,-4 -5,-8 -7,-12l-43 54c-15,18 -30,37 -45,58 -4,3 -8,5 -12,5 -4,0 -8,-1 -10,-4 -3,-2 -5,-5 -5,-10 0,-4 1,-8 4,-12 12,-16 25,-33 38,-50 13,-17 27,-34 41,-51 5,-6 8,-13 10,-22 1,-8 2,-18 4,-29l2 -8c3,-16 10,-33 21,-51 10,-19 23,-36 37,-52 14,-16 28,-29 43,-41 14,-11 27,-18 38,-21 6,-2 14,-1 23,4 10,4 18,10 26,17 8,7 14,15 19,23 5,8 6,14 4,19 -31,10 -60,28 -88,53 -27,24 -48,54 -61,88 -2,6 -3,12 -1,18 1,5 4,12 8,19 4,7 8,14 14,22 5,8 11,18 16,28 3,7 2,16 -4,28 -5,12 -12,25 -21,40 -9,14 -18,28 -28,43 -10,15 -19,28 -25,39 -7,11 -11,21 -11,28 -1,6 4,9 13,8 5,-1 14,-6 28,-17 13,-10 29,-23 46,-40 18,-16 36,-34 55,-53 19,-20 37,-39 52,-57 5,-4 9,-7 12,-8 4,-1 8,-1 10,1 3,2 5,5 5,9 1,4 0,8 -3,14 -15,21 -33,43 -53,66 -21,24 -42,46 -63,66 -21,20 -41,37 -61,51 -20,13 -36,21 -49,23 -17,2 -30,-1 -40,-8 -9,-7 -16,-16 -20,-27 -4,-12 -5,-24 -3,-38 2,-15 7,-28 14,-40zm165 27c5,-13 12,-28 21,-45 9,-16 20,-34 31,-52 11,-19 22,-37 34,-55 12,-18 22,-35 31,-50 9,-16 16,-30 22,-41 5,-12 7,-21 6,-27 -2,-7 2,-10 12,-9 9,1 20,4 31,11 12,6 21,15 30,26 8,12 10,24 5,38 -2,5 -7,15 -16,28 -9,13 -19,28 -31,45 -12,17 -24,36 -37,54 -14,19 -25,37 -34,53 -10,16 -16,29 -20,40 -5,11 -4,17 1,18 8,2 18,-3 32,-13 14,-11 30,-25 48,-42 18,-17 36,-36 55,-56 18,-21 36,-41 52,-59 3,-4 7,-7 12,-8 4,-1 7,-1 10,1 3,2 4,5 5,9 0,4 -1,8 -5,14 -14,20 -31,41 -51,65 -20,24 -41,46 -62,67 -22,20 -44,38 -66,52 -21,15 -41,22 -59,23 -17,1 -29,-2 -38,-8 -8,-7 -15,-15 -18,-24 -4,-9 -6,-19 -5,-29 0,-11 1,-19 4,-26zm206 -296c-6,-5 -10,-9 -11,-13 0,-3 2,-9 6,-17 3,-8 8,-18 15,-30 6,-12 13,-24 20,-36 8,-12 16,-22 24,-32 8,-9 16,-16 24,-21 6,-3 14,-3 24,0 10,3 20,7 29,12 9,6 16,12 23,19 6,7 8,13 6,18 -28,17 -54,40 -75,69 -13,16 -26,28 -39,35 -13,6 -28,5 -46,-4zm33 341c-12,18 -19,30 -23,34 -4,5 -7,7 -12,7 -11,0 -20,-3 -26,-10 -6,-7 -10,-15 -12,-25 -2,-9 -2,-18 -1,-28 1,-9 3,-16 6,-21 11,-18 25,-40 43,-67 18,-27 36,-55 53,-83 18,-28 33,-54 46,-78 14,-24 21,-41 23,-53 0,-5 3,-7 8,-7 6,-1 12,0 18,3 7,2 15,6 22,11 8,6 14,12 20,18 6,7 9,14 11,22 2,7 1,14 -3,22 -2,4 -6,11 -12,20 -6,9 -13,20 -22,33 15,-16 30,-32 44,-46 15,-16 30,-29 45,-40 15,-11 29,-19 44,-25 15,-6 30,-8 45,-7 31,2 47,20 47,53 0,14 -6,32 -16,52 -11,21 -23,42 -37,63 -14,22 -29,43 -43,62 -14,20 -25,36 -32,49 -8,11 -11,20 -11,26 0,5 2,9 6,10 4,1 10,0 17,-3 7,-3 15,-8 22,-15 8,-8 19,-18 33,-31 13,-13 27,-27 42,-41 16,-15 30,-30 45,-45 14,-15 26,-29 37,-41 4,-4 8,-7 12,-8 4,-1 7,-1 10,1 2,2 4,5 5,9 0,4 -1,8 -4,14 -14,20 -32,41 -52,65 -20,24 -41,46 -62,67 -22,20 -44,38 -65,52 -22,15 -42,22 -61,23 -25,1 -44,-6 -56,-21 -12,-16 -16,-35 -10,-59 2,-9 7,-21 15,-36 8,-15 18,-30 29,-47 11,-17 22,-34 33,-51 11,-18 20,-34 28,-48 8,-14 13,-25 16,-34 3,-9 1,-13 -6,-13 -8,0 -20,6 -36,17 -16,11 -32,26 -50,42 -18,17 -37,35 -55,55 -19,19 -35,37 -48,53l-70 100zm520 106c-18,31 -38,66 -60,104 -22,38 -46,77 -73,115 -26,39 -54,77 -83,113 -29,36 -60,68 -93,96 -32,27 -66,49 -101,65 -35,16 -71,23 -109,21 -22,-1 -41,-6 -57,-15 -16,-9 -29,-21 -38,-37 -10,-15 -16,-33 -19,-53 -4,-20 -4,-41 -1,-64 5,-38 17,-72 38,-103 20,-30 46,-58 76,-83 31,-24 66,-46 104,-66 39,-19 78,-37 119,-53 40,-17 81,-32 121,-46 41,-13 78,-27 113,-40l31 -53c-11,9 -22,17 -33,23 -10,5 -21,9 -32,9 -19,1 -34,-4 -45,-15 -11,-11 -18,-26 -19,-46 0,-21 4,-45 15,-73 10,-27 28,-59 53,-93 13,-18 27,-35 42,-51 16,-16 32,-30 49,-42 17,-12 35,-22 54,-28 18,-7 37,-10 57,-9 16,2 27,9 32,21l3 -18c0,-5 3,-7 9,-8 5,-1 11,-1 19,1 7,3 15,6 23,11 8,5 15,10 21,16 6,7 9,14 11,22 2,7 1,16 -4,24 -12,19 -25,40 -38,61 -13,22 -26,44 -39,66 -14,23 -27,45 -41,68 -13,22 -26,43 -39,63 22,-12 42,-24 60,-37 19,-13 37,-27 55,-42 18,-16 35,-33 53,-52 19,-18 38,-40 59,-63 7,-5 14,-5 19,-1 6,4 7,11 3,19 -23,31 -46,58 -69,81 -23,24 -46,45 -70,64 -23,19 -48,35 -73,50 -25,15 -50,28 -77,41l-26 37zm-522 484c29,2 61,-9 95,-34 34,-25 69,-59 105,-103 37,-43 74,-94 112,-153 39,-58 77,-119 116,-183 -26,10 -55,21 -87,33 -32,11 -64,24 -98,39 -34,14 -67,30 -101,47 -34,16 -65,35 -94,55 -28,21 -54,43 -76,67 -22,24 -38,50 -49,78 -6,16 -8,33 -7,50 0,17 4,34 11,48 7,15 17,27 29,38 12,10 27,16 44,18zm433 -589c10,0 20,-5 30,-13 11,-8 22,-18 34,-31 11,-12 24,-27 37,-43 12,-17 26,-34 41,-52 9,-16 19,-32 29,-48 10,-15 19,-31 28,-45 3,-6 6,-12 9,-19 2,-6 4,-12 6,-17 1,-5 1,-10 -1,-14 -1,-4 -5,-6 -11,-6 -7,0 -15,4 -26,11 -11,7 -23,17 -36,28 -14,12 -27,25 -41,40 -14,15 -27,30 -39,45 -15,20 -28,39 -39,59 -10,19 -18,37 -23,53 -5,16 -8,29 -8,38 0,10 3,15 10,14z"/>
   <path class="fil2" d="M5172 685c18,2 29,10 34,25 3,-10 5,-17 4,-22 -1,-5 1,-7 5,-8 5,-1 11,-1 18,1 7,2 15,5 23,9 8,5 16,11 22,17 6,7 10,14 13,22 2,8 2,17 -3,25 -2,5 -8,14 -18,28 -10,14 -22,29 -35,47 -13,18 -26,37 -40,56 -14,20 -26,38 -36,55 -11,16 -18,31 -22,42 -4,12 -3,18 4,20 6,1 17,-3 33,-15 15,-12 32,-27 51,-45 19,-19 38,-39 58,-60 21,-22 38,-42 54,-60 4,-4 8,-7 12,-8 4,-1 7,-1 10,1 3,2 4,5 5,9 1,4 -1,8 -4,14 -14,20 -31,41 -51,65 -20,24 -41,46 -63,67 -22,20 -43,38 -65,52 -21,15 -42,22 -60,23 -13,1 -23,-1 -31,-5 -8,-4 -14,-9 -18,-16 -5,-6 -8,-14 -10,-22 -1,-8 -2,-16 -1,-23 -16,18 -32,32 -48,44 -16,12 -31,19 -47,19 -19,1 -34,-4 -45,-15 -11,-11 -17,-26 -18,-46 -1,-21 4,-45 14,-73 10,-27 28,-59 53,-93 13,-18 27,-35 43,-51 15,-16 32,-30 48,-42 17,-12 35,-22 54,-28 18,-7 37,-10 57,-9zm-199 319c10,0 20,-5 30,-13 11,-8 22,-18 34,-31 11,-12 24,-27 37,-43 12,-17 26,-34 41,-52 9,-16 19,-32 29,-48 10,-15 19,-31 28,-45 3,-6 6,-12 9,-19 2,-6 4,-12 6,-17 1,-5 1,-10 -1,-14 -1,-4 -5,-6 -11,-6 -7,0 -15,4 -26,11 -11,7 -23,17 -36,28 -13,12 -27,25 -41,40 -14,15 -27,30 -39,45 -15,20 -28,39 -39,59 -10,19 -18,37 -23,53 -5,16 -8,29 -8,38 0,10 4,15 10,14zm-188 -158c-6,13 -14,28 -22,45 -9,17 -16,34 -22,49 -6,15 -9,27 -9,38 0,10 5,16 16,16 14,0 30,-6 49,-17 19,-11 39,-25 59,-42 21,-17 42,-35 63,-55 20,-21 40,-40 58,-58 4,-4 8,-6 12,-7 5,-1 8,-1 11,1 2,1 4,4 4,8 0,4 -1,8 -4,14 -14,20 -32,42 -54,66 -22,24 -44,47 -69,68 -24,21 -48,39 -73,53 -24,14 -46,21 -67,20 -18,-1 -32,-5 -42,-12 -10,-8 -18,-17 -23,-29 -5,-11 -8,-24 -8,-38 -1,-14 0,-28 2,-43 -11,15 -22,30 -33,44 -12,14 -23,27 -35,38 -12,11 -24,20 -36,27 -12,7 -23,10 -35,10 -19,1 -34,-4 -45,-15 -11,-11 -17,-26 -18,-46 -1,-21 4,-45 14,-73 11,-27 28,-59 53,-93 13,-18 27,-35 43,-51 15,-16 31,-30 48,-42 17,-12 35,-22 54,-28 18,-7 38,-10 57,-9 14,2 23,7 28,14 24,-41 50,-81 78,-118 28,-38 56,-72 85,-102 28,-31 57,-56 86,-77 28,-21 55,-36 81,-44 9,-2 18,-1 28,3 10,4 18,10 24,18 7,8 11,17 13,28 3,11 1,22 -5,33 -15,27 -35,57 -59,88 -23,31 -50,62 -78,92 -29,30 -60,58 -92,85 -32,27 -64,50 -95,69l-41 72 -1 0zm338 -434c-12,3 -28,13 -47,31 -19,17 -41,41 -65,69 -24,29 -49,61 -76,98 -26,37 -52,76 -78,117 21,-16 43,-34 66,-56 23,-22 46,-45 67,-69 22,-24 42,-47 61,-71 19,-23 35,-44 47,-62 13,-18 22,-32 26,-43 5,-11 5,-16 -1,-14zm-595 592c10,0 20,-5 30,-13 11,-8 22,-18 34,-31 11,-12 24,-27 37,-43 12,-17 26,-34 41,-52 9,-16 19,-32 29,-48 10,-15 19,-31 28,-45 3,-5 5,-11 8,-18 3,-7 5,-13 7,-19 1,-5 1,-10 -1,-13 -1,-4 -5,-6 -11,-6 -7,0 -15,4 -26,11 -11,7 -23,17 -36,28 -13,12 -27,25 -41,40 -14,15 -27,30 -39,45 -15,20 -28,39 -39,59 -10,20 -18,38 -24,53 -5,16 -8,29 -7,38 0,10 3,15 10,14zm-423 -1c-12,18 -20,30 -24,34 -3,5 -7,7 -11,7 -12,0 -21,-3 -27,-10 -6,-7 -10,-15 -12,-25 -2,-9 -2,-18 -1,-28 1,-9 3,-16 6,-21 11,-18 25,-40 43,-67 18,-27 36,-55 54,-83 17,-28 32,-54 46,-78 13,-24 20,-41 22,-53 1,-5 4,-7 9,-7 5,-1 11,0 18,3 7,2 14,6 21,11 8,6 14,12 20,18 6,7 10,14 11,22 2,7 1,14 -2,22 -3,4 -7,11 -13,20 -6,9 -13,20 -22,33 15,-16 30,-32 45,-46 15,-16 29,-29 44,-40 15,-11 30,-19 44,-25 15,-6 30,-8 45,-7 31,2 47,20 47,53 0,14 -6,32 -16,52 -11,21 -23,42 -37,63 -14,22 -28,43 -43,62 -14,20 -25,36 -32,49 -7,11 -11,20 -11,26 0,5 2,9 6,10 5,1 10,0 17,-3 8,-3 15,-8 22,-15 8,-8 19,-18 33,-31 13,-13 28,-27 43,-41 15,-15 29,-30 44,-45 14,-15 27,-29 37,-41 4,-4 8,-7 12,-8 4,-1 7,-1 10,1 3,2 4,5 5,9 0,4 -1,8 -4,14 -14,20 -31,41 -52,65 -20,24 -41,46 -62,67 -22,20 -43,38 -65,52 -22,15 -42,22 -60,23 -26,1 -45,-6 -57,-21 -12,-16 -15,-35 -10,-59 2,-9 7,-21 15,-36 9,-15 18,-30 29,-47 11,-17 22,-34 33,-51 11,-18 21,-34 28,-48 8,-14 13,-25 16,-34 3,-9 1,-13 -6,-13 -8,0 -20,6 -36,17 -15,11 -32,26 -50,42 -18,17 -37,35 -55,55 -19,19 -35,37 -48,53l-69 100zm-134 -318c18,2 29,10 34,25 3,-10 5,-17 4,-22 -1,-5 1,-7 6,-8 4,-1 10,-1 17,1 7,2 15,5 23,9 9,5 16,11 22,17 6,7 10,14 13,22 3,8 2,17 -2,25 -3,5 -9,14 -19,28 -10,14 -21,29 -35,47 -13,18 -26,37 -40,56 -14,20 -26,38 -36,55 -10,16 -18,31 -22,42 -4,12 -3,18 4,20 6,1 17,-3 33,-15 15,-12 32,-27 51,-45 19,-19 39,-39 59,-60 20,-22 38,-42 53,-60 4,-4 8,-7 12,-8 4,-1 8,-1 10,1 3,2 5,5 5,9 1,4 0,8 -3,14 -15,20 -32,41 -52,65 -20,24 -41,46 -63,67 -21,20 -43,38 -65,52 -21,15 -41,22 -60,23 -13,1 -23,-1 -31,-5 -7,-4 -14,-9 -18,-16 -5,-6 -8,-14 -10,-22 -1,-8 -2,-16 -1,-23 -16,18 -32,32 -48,44 -16,12 -31,19 -47,19 -19,1 -33,-4 -45,-15 -11,-11 -17,-26 -18,-46 0,-21 4,-45 14,-73 11,-27 28,-59 53,-93 13,-18 27,-35 43,-51 16,-16 32,-30 49,-42 16,-12 34,-22 53,-28 18,-7 38,-10 57,-9zm-199 319c10,0 20,-5 30,-13 11,-8 22,-18 34,-31 12,-12 24,-27 37,-43 13,-17 26,-34 41,-52 9,-16 19,-32 29,-48 10,-15 19,-31 28,-45 3,-6 6,-12 9,-19 3,-6 5,-12 6,-17 1,-5 1,-10 -1,-14 -1,-4 -5,-6 -11,-6 -7,0 -15,4 -26,11 -11,7 -23,17 -36,28 -13,12 -27,25 -41,40 -14,15 -27,30 -39,45 -15,20 -28,39 -39,59 -10,19 -18,37 -23,53 -5,16 -8,29 -8,38 0,10 4,15 10,14z"/>
  </g>
 </g>
</svg>
